# xmcd
#
# Track frame offsets: 
#        182
#        16707
#        32207
#        46432
#        58207
#        72307
#        84957
#        97207
#        113982
#        130057
#        147532
#        160032
#
# Disc length: 2323 seconds
#
# Revision: 6
# Processed by: cddbd v1.5.2PL0 Copyright (c) Steve Scherf et al.
# Submitted via: ExactAudioCopy v0.99pb4
#
DISCID=a609110c
DTITLE=Anne Murray - Love Songs
DYEAR=2000
DGENRE=Country
TTITLE0=What's Forever For
TTITLE1=You're A Part Of Me
TTITLE2=Dream Lover
TTITLE3=It Should Have Been Easy
TTITLE4=Just To Feel This Love From You
TTITLE5=Tennessee Waltz
TTITLE6=Bitter They Are, Harder They Fall
TTITLE7=Only Love
TTITLE8=Let's Keep It That Way
TTITLE9=We Don't Make Love Anymore
TTITLE10=Beginning To Feel Like Home
TTITLE11=(He Can't Help It If) He's Not You
EXTD=reissue from 1989
EXTT0=
EXTT1=
EXTT2=
EXTT3=
EXTT4=
EXTT5=
EXTT6=
EXTT7=
EXTT8=
EXTT9=
EXTT10=
EXTT11=
PLAYORDER=
